<svg xmlns="http://www.w3.org/2000/svg" xmlns:xlink="http://www.w3.org/1999/xlink" viewBox="0 0 646.83 148.59"><defs><style>.cls-1{fill:#0e0c38;}.cls-2{fill:url(#linear-gradient);}</style><linearGradient id="linear-gradient" y1="74.78" x2="158.67" y2="74.78" gradientUnits="userSpaceOnUse"><stop offset="0" stop-color="#1050de"/><stop offset="1" stop-color="#01daff"/></linearGradient></defs><g id="Layer_2" data-name="Layer 2"><g id="Layer_1-2" data-name="Layer 1"><path class="cls-1" d="M195.31,58.8q-4.25-4.29-4.24-11.93V26.71h-7.9V16.88H184a7.22,7.22,0,0,0,5.21-1.76A6.76,6.76,0,0,0,191.07,10V6.47h11V16.88h10.5v9.83h-10.5V46.28a7.2,7.2,0,0,0,1.85,5.3q1.85,1.85,5.88,1.84a18.62,18.62,0,0,0,2.94-.25v9.41c-.78.11-1.68.22-2.69.34a25.62,25.62,0,0,1-2.77.16Q199.56,63.08,195.31,58.8Z"/><path class="cls-1" d="M221.14,0h11V11.76h-11Zm0,16.88h11v45.7h-11Z"/><path class="cls-1" d="M242.31,16.88h10.33v5.63a12,12,0,0,1,5.25-5,17.14,17.14,0,0,1,7.69-1.68,17.94,17.94,0,0,1,8.94,2.18,15.57,15.57,0,0,1,6.09,6.09,18.16,18.16,0,0,1,2.19,9v29.4h-11V35.78a9.89,9.89,0,0,0-2.56-7.18,9.72,9.72,0,0,0-13.36,0,9.94,9.94,0,0,0-2.56,7.14v26.8h-11Z"/><path class="cls-1" d="M293.21,80.85a12.27,12.27,0,0,1-3.19-1V70.64a18.68,18.68,0,0,0,2.69.55,20.81,20.81,0,0,0,2.85.21q3.78,0,5.51-1.76A17.17,17.17,0,0,0,304.13,65l1-2.44-18.06-45.7h11.84l11.85,31.5,11.76-31.5h11.93L314.55,67.2a25.3,25.3,0,0,1-6.93,10.29,16.16,16.16,0,0,1-10.8,3.65A21.54,21.54,0,0,1,293.21,80.85Z"/><path class="cls-1" d="M207.13,147a16.57,16.57,0,0,1-6.34-4.53v5.12H190.46V84h11V106.5q5.13-5.62,14-5.62A22.26,22.26,0,0,1,227.25,104a22.79,22.79,0,0,1,8.23,8.56,25.84,25.84,0,0,1,0,24.28,22.81,22.81,0,0,1-8.23,8.57,22.42,22.42,0,0,1-11.84,3.15A21.18,21.18,0,0,1,207.13,147Zm13.69-10.25a12.41,12.41,0,0,0,4.58-4.91,14.86,14.86,0,0,0,1.68-7.1,14.58,14.58,0,0,0-1.68-7,12.85,12.85,0,0,0-4.58-4.92,12.36,12.36,0,0,0-6.67-1.8,12.2,12.2,0,0,0-11.05,6.63,16.36,16.36,0,0,0,0,14.28,12.23,12.23,0,0,0,11.05,6.64A12.52,12.52,0,0,0,220.82,136.74Z"/><path class="cls-1" d="M246.91,84h11v63.59h-11Z"/><path class="cls-1" d="M271.73,143.42q-4.58-5.16-4.58-13.56v-28h11v27.05a9.49,9.49,0,0,0,2.57,7,9.73,9.73,0,0,0,13.31,0,9.77,9.77,0,0,0,2.6-7.18v-26.8h11v45.7H297.22v-5.46A12.48,12.48,0,0,1,292,147a17,17,0,0,1-7.6,1.64Q276.3,148.59,271.73,143.42Z"/><path class="cls-1" d="M327.21,145.4a22.25,22.25,0,0,1-8.23-8.66A25.09,25.09,0,0,1,316,124.65a24.58,24.58,0,0,1,3-12.22,22.49,22.49,0,0,1,8.15-8.45,22,22,0,0,1,11.55-3.1,22.57,22.57,0,0,1,12.09,3.06,20.38,20.38,0,0,1,7.56,8.11A23.91,23.91,0,0,1,361,123.22a22.5,22.5,0,0,1-.13,2.48,9,9,0,0,1-.46,2.14H327.46a12.5,12.5,0,0,0,18.61,9.45,12.14,12.14,0,0,0,4.16-4.24l8.9,4.37a17.42,17.42,0,0,1-7.35,8,25.39,25.39,0,0,1-24.57,0Zm4.41-33a11.85,11.85,0,0,0-3.91,7h21.51a10,10,0,0,0-3.24-6.85,10.37,10.37,0,0,0-7.26-2.64A10.71,10.71,0,0,0,331.62,112.43Z"/><path class="cls-1" d="M384.24,101.88h10.34v6.47a10.37,10.37,0,0,1,4.95-5.46,17.05,17.05,0,0,1,7.39-1.51h2.69v9.74h-3.95a10.16,10.16,0,0,0-7.51,2.9c-1.94,1.93-2.9,4.64-2.9,8.11v25.45h-11Z"/><path class="cls-1" d="M425.78,145.48a23.85,23.85,0,0,1,0-41.5,25.63,25.63,0,0,1,24.44,0,23.69,23.69,0,0,1,8.7,8.49,23.86,23.86,0,0,1-8.78,33.05,25.47,25.47,0,0,1-24.32,0Zm18.73-8.74a12.42,12.42,0,0,0,4.46-4.91,15.19,15.19,0,0,0,1.63-7.1,14.9,14.9,0,0,0-1.63-7,12.86,12.86,0,0,0-4.46-4.92A11.79,11.79,0,0,0,438,111a12.23,12.23,0,0,0-6.59,1.8,12.67,12.67,0,0,0-4.54,4.92,14.9,14.9,0,0,0-1.63,7,15.19,15.19,0,0,0,1.63,7.1,12.24,12.24,0,0,0,4.54,4.91,12.39,12.39,0,0,0,6.59,1.77A11.94,11.94,0,0,0,444.51,136.74Z"/><path class="cls-1" d="M480.21,145.44a23,23,0,0,1-8.52-8.57,24.14,24.14,0,0,1-3.11-12.22,23.89,23.89,0,0,1,3.11-12.18,22.76,22.76,0,0,1,8.52-8.49,25.53,25.53,0,0,1,21.3-1.42,20.9,20.9,0,0,1,7.22,4.74,19,19,0,0,1,4.45,7.1l-9.66,4.2a12.07,12.07,0,0,0-4.24-5.54,11.34,11.34,0,0,0-6.84-2.1,11.83,11.83,0,0,0-6.43,1.76,12.16,12.16,0,0,0-4.41,4.87,16.64,16.64,0,0,0,0,14.24,12,12,0,0,0,4.41,4.91,11.83,11.83,0,0,0,6.43,1.77,11.51,11.51,0,0,0,6.84-2.06,11.75,11.75,0,0,0,4.24-5.67l9.66,4.37a18.47,18.47,0,0,1-4.36,6.93,21.6,21.6,0,0,1-7.23,4.79,25.27,25.27,0,0,1-21.38-1.43Z"/><path class="cls-1" d="M521.5,84h11v36l17.31-18.15H563.5l-16.89,18.4,17.22,27.3h-12.6l-12.85-20.33-5.88,6.39v13.94h-11Z"/><path class="cls-1" d="M578.45,145.4a22.25,22.25,0,0,1-8.23-8.66,25.09,25.09,0,0,1-2.94-12.09,24.58,24.58,0,0,1,3-12.22,22.49,22.49,0,0,1,8.15-8.45,22,22,0,0,1,11.55-3.1,22.57,22.57,0,0,1,12.09,3.06,20.38,20.38,0,0,1,7.56,8.11,23.91,23.91,0,0,1,2.61,11.17,22.5,22.5,0,0,1-.13,2.48,9,9,0,0,1-.46,2.14H578.7a12.5,12.5,0,0,0,18.61,9.45,12.14,12.14,0,0,0,4.16-4.24l8.9,4.37a17.42,17.42,0,0,1-7.35,8,25.39,25.39,0,0,1-24.57,0Zm4.41-33a11.78,11.78,0,0,0-3.9,7h21.5a10,10,0,0,0-3.23-6.85A10.41,10.41,0,0,0,590,110,10.71,10.71,0,0,0,582.86,112.43Z"/><path class="cls-1" d="M629.4,143.8q-4.24-4.29-4.25-11.93V111.71h-7.89v-9.83h.84a7.24,7.24,0,0,0,5.21-1.76A6.75,6.75,0,0,0,625.15,95V91.47h11v10.41h10.5v9.83h-10.5v19.57a7.16,7.16,0,0,0,1.85,5.3q1.85,1.84,5.88,1.84a18.81,18.81,0,0,0,2.94-.25v9.41c-.79.11-1.68.22-2.69.34a25.62,25.62,0,0,1-2.77.16Q633.63,148.08,629.4,143.8Z"/><path class="cls-2" d="M82.33,145c4.91-8.15,12.44-28.85,6.43-51a125,125,0,0,0,24.59-12C139,65.71,154,41.91,158.06,11.17c.25-1.86.44-3.75.6-5.66a2.77,2.77,0,0,0-2.42-3c-1.9-.23-3.8-.43-5.67-.57C119.66-.37,93.27,9.39,72,31.1A125.11,125.11,0,0,0,55.21,52.71C34.78,42.26,13,45.37,4,48.49a5.8,5.8,0,0,0-3.12,2.4,5.66,5.66,0,0,0,1.22,7.39c11.34,9.3,21.1,17,28.23,22.65,3.49,2.76,6.29,5,8.25,6.56a6.61,6.61,0,0,0,10.36-2.8,160.47,160.47,0,0,1,9.27-20.42,56.72,56.72,0,0,1,11.48,11A55.32,55.32,0,0,1,78,88.76a161.24,161.24,0,0,1-21.83,4.85,6.62,6.62,0,0,0-4.87,9.57c1.14,2.23,2.74,5.43,4.72,9.42,4,8.13,9.58,19.27,16.35,32.29a6.21,6.21,0,0,0,.62,1,5.7,5.7,0,0,0,6.36,1.77,5.83,5.83,0,0,0,3-2.57M42,79.5c-1.75-1.41-3.93-3.12-6.46-5.13C29.25,69.44,21,62.9,11.4,55.1c9.23-2,24.79-2.64,39.61,4.82A170.39,170.39,0,0,0,42,79.5m34.27-9.43h0L76.15,70l-.06-.08h0A64.34,64.34,0,0,0,62.4,57c15.8-25.39,42.76-49.95,87.33-46.74-6,44.28-35.62,65.6-63.71,75.83a65.67,65.67,0,0,0-9.8-16M63.49,108.88c-1.44-2.89-2.67-5.38-3.68-7.38a168.12,168.12,0,0,0,20.9-4.8c4.14,16,.34,31.2-3.34,39.68-5.65-11-10.34-20.39-13.88-27.5"/></g></g></svg>